<svg xmlns="http://www.w3.org/2000/svg" xmlns:xlink="http://www.w3.org/1999/xlink" version="1.1" width="1000" height="1000" viewBox="0 0 1000 1000" xml:space="preserve">
<desc>Created with Fabric.js 3.5.0</desc>
<defs>
</defs>
<rect x="0" y="0" width="100%" height="100%" fill="rgba(255,255,255,0)"/>
<g transform="matrix(27.5482 0 0 27.5482 499.9998 499.9999)" id="490174">
<g style="" vector-effect="non-scaling-stroke">
		<g transform="matrix(1 0 0 1 -0.8879 0)">
<path style="stroke: rgb(240,0,152); stroke-width: 0.9184; stroke-dasharray: none; stroke-linecap: butt; stroke-dashoffset: 0; stroke-linejoin: miter; stroke-miterlimit: 4; is-custom-font: none; font-file-url: none; fill: none; fill-rule: nonzero; opacity: 1;" transform=" translate(-15.612, -15.5)" d="M 30.7649 15.5 C 30.7649 23.8037 23.9839 30.5408 15.6121 30.5408 C 7.24023 30.5408 0.459178 23.8037 0.459178 15.5 C 0.459178 7.1963 7.24023 0.459178 15.6121 0.459178 C 23.9839 0.459178 30.7649 7.1963 30.7649 15.5 Z" stroke-linecap="round"/>
</g>
		<g transform="matrix(1 0 0 1 -0.8525 -0.0506)">
<rect style="stroke: none; stroke-width: 1; stroke-dasharray: none; stroke-linecap: butt; stroke-dashoffset: 0; stroke-linejoin: miter; stroke-miterlimit: 4; is-custom-font: none; font-file-url: none; fill: rgb(255,255,255); fill-opacity: 0; fill-rule: nonzero; opacity: 1;" x="-3.5127" y="-7.3625" rx="0" ry="0" width="7.0254" height="14.725"/>
</g>
		<g transform="matrix(1 0 0 1 -0.8525 -0.0506)">
<rect style="stroke: none; stroke-width: 1; stroke-dasharray: none; stroke-linecap: butt; stroke-dashoffset: 0; stroke-linejoin: miter; stroke-miterlimit: 4; is-custom-font: none; font-file-url: none; fill: rgb(255,255,255); fill-opacity: 0; fill-rule: nonzero; opacity: 1;" x="-3.5127" y="-7.3625" rx="0" ry="0" width="7.0254" height="14.725"/>
</g>
</g>
</g>
<g transform="matrix(12.363 0 0 12.363 469.972 487.1253)" id="565585">
<path style="stroke: none; stroke-width: 1; stroke-dasharray: none; stroke-linecap: butt; stroke-dashoffset: 0; stroke-linejoin: miter; stroke-miterlimit: 4; is-custom-font: none; font-file-url: none; fill: rgb(240,0,152); fill-rule: nonzero; opacity: 1;" vector-effect="non-scaling-stroke" transform=" translate(-29.206, -30.251)" d="M 40.43 21.739 h -7.645 v -5.014 c 0 -1.883 1.248 -2.322 2.127 -2.322 c 0.877 0 5.395 0 5.395 0 V 6.125 l -7.43 -0.029 c -8.248 0 -10.125 6.174 -10.125 10.125 v 5.518 h -4.77 v 8.53 h 4.77 c 0 10.947 0 24.137 0 24.137 h 10.033 c 0 0 0 -13.32 0 -24.137 h 6.77 L 40.43 21.739 z" stroke-linecap="round"/>
</g>
</svg>