<svg xmlns="http://www.w3.org/2000/svg" xmlns:xlink="http://www.w3.org/1999/xlink" version="1.1" width="1000" height="1000" viewBox="0 0 1000 1000" xml:space="preserve">
<desc>Created with Fabric.js 3.5.0</desc>
<defs>
</defs>
<rect x="0" y="0" width="100%" height="100%" fill="rgba(255,255,255,0)"/>
<g transform="matrix(27.5482 0 0 27.5482 499.9998 499.9999)" id="490174">
<g style="" vector-effect="non-scaling-stroke">
		<g transform="matrix(1 0 0 1 -0.8879 0)">
<path style="stroke: rgb(240,0,152); stroke-width: 0.9184; stroke-dasharray: none; stroke-linecap: butt; stroke-dashoffset: 0; stroke-linejoin: miter; stroke-miterlimit: 4; is-custom-font: none; font-file-url: none; fill: none; fill-rule: nonzero; opacity: 1;" transform=" translate(-15.612, -15.5)" d="M 30.7649 15.5 C 30.7649 23.8037 23.9839 30.5408 15.6121 30.5408 C 7.24023 30.5408 0.459178 23.8037 0.459178 15.5 C 0.459178 7.1963 7.24023 0.459178 15.6121 0.459178 C 23.9839 0.459178 30.7649 7.1963 30.7649 15.5 Z" stroke-linecap="round"/>
</g>
		<g transform="matrix(1 0 0 1 -0.8525 -0.0506)">
<rect style="stroke: none; stroke-width: 1; stroke-dasharray: none; stroke-linecap: butt; stroke-dashoffset: 0; stroke-linejoin: miter; stroke-miterlimit: 4; is-custom-font: none; font-file-url: none; fill: rgb(255,255,255); fill-opacity: 0; fill-rule: nonzero; opacity: 1;" x="-3.5127" y="-7.3625" rx="0" ry="0" width="7.0254" height="14.725"/>
</g>
		<g transform="matrix(1 0 0 1 -0.8525 -0.0506)">
<rect style="stroke: none; stroke-width: 1; stroke-dasharray: none; stroke-linecap: butt; stroke-dashoffset: 0; stroke-linejoin: miter; stroke-miterlimit: 4; is-custom-font: none; font-file-url: none; fill: rgb(255,255,255); fill-opacity: 0; fill-rule: nonzero; opacity: 1;" x="-3.5127" y="-7.3625" rx="0" ry="0" width="7.0254" height="14.725"/>
</g>
</g>
</g>
<g transform="matrix(9.8824 0 0 9.8824 488.1655 500.0004)" id="231708">
<g style="" vector-effect="non-scaling-stroke">
		<g transform="matrix(1 0 0 1 -0.15 1.15)" id="Layer_1">
<path style="stroke: none; stroke-width: 1; stroke-dasharray: none; stroke-linecap: butt; stroke-dashoffset: 0; stroke-linejoin: miter; stroke-miterlimit: 4; is-custom-font: none; font-file-url: none; fill: rgb(240,0,152); fill-rule: nonzero; opacity: 1;" transform=" translate(-28.2, -29.5)" d="M 28.2 16.7 c -7 0 -12.8 5.7 -12.8 12.8 s 5.7 12.8 12.8 12.8 S 41 36.5 41 29.5 S 35.2 16.7 28.2 16.7 z M 28.2 37.7 c -4.5 0 -8.2 -3.7 -8.2 -8.2 s 3.7 -8.2 8.2 -8.2 s 8.2 3.7 8.2 8.2 S 32.7 37.7 28.2 37.7 z" stroke-linecap="round"/>
</g>
		<g transform="matrix(1 0 0 1 13.15 -11.95)" id="Layer_1">
<circle style="stroke: none; stroke-width: 1; stroke-dasharray: none; stroke-linecap: butt; stroke-dashoffset: 0; stroke-linejoin: miter; stroke-miterlimit: 4; is-custom-font: none; font-file-url: none; fill: rgb(240,0,152); fill-rule: nonzero; opacity: 1;" cx="0" cy="0" r="2.9"/>
</g>
		<g transform="matrix(1 0 0 1 -0.15 1.25)" id="Layer_1">
<path style="stroke: none; stroke-width: 1; stroke-dasharray: none; stroke-linecap: butt; stroke-dashoffset: 0; stroke-linejoin: miter; stroke-miterlimit: 4; is-custom-font: none; font-file-url: none; fill: rgb(240,0,152); fill-rule: nonzero; opacity: 1;" transform=" translate(-28.2, -29.6)" d="M 49 8.9 c -2.6 -2.7 -6.3 -4.1 -10.5 -4.1 H 17.9 c -8.7 0 -14.5 5.8 -14.5 14.5 v 20.5 c 0 4.3 1.4 8 4.2 10.7 c 2.7 2.6 6.3 3.9 10.4 3.9 h 20.4 c 4.3 0 7.9 -1.4 10.5 -3.9 c 2.7 -2.6 4.1 -6.3 4.1 -10.6 V 19.3 C 53 15.1 51.6 11.5 49 8.9 z M 48.6 39.9 c 0 3.1 -1.1 5.6 -2.9 7.3 s -4.3 2.6 -7.3 2.6 H 18 c -3 0 -5.5 -0.9 -7.3 -2.6 C 8.9 45.4 8 42.9 8 39.8 V 19.3 c 0 -3 0.9 -5.5 2.7 -7.3 c 1.7 -1.7 4.3 -2.6 7.3 -2.6 h 20.6 c 3 0 5.5 0.9 7.3 2.7 c 1.7 1.8 2.7 4.3 2.7 7.2 V 39.9 L 48.6 39.9 z" stroke-linecap="round"/>
</g>
</g>
</g>
</svg>