<svg xmlns="http://www.w3.org/2000/svg" xmlns:xlink="http://www.w3.org/1999/xlink" version="1.1" width="1000" height="1000" viewBox="0 0 1000 1000" xml:space="preserve">
<desc>Created with Fabric.js 3.5.0</desc>
<defs>
</defs>
<rect x="0" y="0" width="100%" height="100%" fill="rgba(255,255,255,0)"/>
<g transform="matrix(27.5482 0 0 27.5482 499.9998 499.9999)" id="490174">
<g style="" vector-effect="non-scaling-stroke">
		<g transform="matrix(1 0 0 1 -0.8879 0)">
<path style="stroke: rgb(240,0,152); stroke-width: 0.9184; stroke-dasharray: none; stroke-linecap: butt; stroke-dashoffset: 0; stroke-linejoin: miter; stroke-miterlimit: 4; is-custom-font: none; font-file-url: none; fill: none; fill-rule: nonzero; opacity: 1;" transform=" translate(-15.612, -15.5)" d="M 30.7649 15.5 C 30.7649 23.8037 23.9839 30.5408 15.6121 30.5408 C 7.24023 30.5408 0.459178 23.8037 0.459178 15.5 C 0.459178 7.1963 7.24023 0.459178 15.6121 0.459178 C 23.9839 0.459178 30.7649 7.1963 30.7649 15.5 Z" stroke-linecap="round"/>
</g>
		<g transform="matrix(1 0 0 1 -0.8525 -0.0506)">
<rect style="stroke: none; stroke-width: 1; stroke-dasharray: none; stroke-linecap: butt; stroke-dashoffset: 0; stroke-linejoin: miter; stroke-miterlimit: 4; is-custom-font: none; font-file-url: none; fill: rgb(255,255,255); fill-opacity: 0; fill-rule: nonzero; opacity: 1;" x="-3.5127" y="-7.3625" rx="0" ry="0" width="7.0254" height="14.725"/>
</g>
		<g transform="matrix(1 0 0 1 -0.8525 -0.0506)">
<rect style="stroke: none; stroke-width: 1; stroke-dasharray: none; stroke-linecap: butt; stroke-dashoffset: 0; stroke-linejoin: miter; stroke-miterlimit: 4; is-custom-font: none; font-file-url: none; fill: rgb(255,255,255); fill-opacity: 0; fill-rule: nonzero; opacity: 1;" x="-3.5127" y="-7.3625" rx="0" ry="0" width="7.0254" height="14.725"/>
</g>
</g>
</g>
<g transform="matrix(10.9185 0 0 10.9185 491.5774 499.9992)" id="66539">
<path style="stroke: none; stroke-width: 1; stroke-dasharray: none; stroke-linecap: butt; stroke-dashoffset: 0; stroke-linejoin: miter; stroke-miterlimit: 4; is-custom-font: none; font-file-url: none; fill: rgb(240,0,152); fill-rule: nonzero; opacity: 1;" vector-effect="non-scaling-stroke" transform=" translate(-28.2055, -30.343)" d="M 52.837 15.065 c -1.811 0.805 -3.76 1.348 -5.805 1.591 c 2.088 -1.25 3.689 -3.23 4.444 -5.592 c -1.953 1.159 -4.115 2 -6.418 2.454 c -1.843 -1.964 -4.47 -3.192 -7.377 -3.192 c -5.581 0 -10.106 4.525 -10.106 10.107 c 0 0.791 0.089 1.562 0.262 2.303 c -8.4 -0.422 -15.848 -4.445 -20.833 -10.56 c -0.87 1.492 -1.368 3.228 -1.368 5.082 c 0 3.506 1.784 6.6 4.496 8.412 c -1.656 -0.053 -3.215 -0.508 -4.578 -1.265 c -0.001 0.042 -0.001 0.085 -0.001 0.128 c 0 4.896 3.484 8.98 8.108 9.91 c -0.848 0.23 -1.741 0.354 -2.663 0.354 c -0.652 0 -1.285 -0.063 -1.902 -0.182 c 1.287 4.015 5.019 6.938 9.441 7.019 c -3.459 2.711 -7.816 4.327 -12.552 4.327 c -0.815 0 -1.62 -0.048 -2.411 -0.142 c 4.474 2.869 9.786 4.541 15.493 4.541 c 18.591 0 28.756 -15.4 28.756 -28.756 c 0 -0.438 -0.009 -0.875 -0.028 -1.309 C 49.769 18.873 51.483 17.092 52.837 15.065 z" stroke-linecap="round"/>
</g>
</svg>