<svg xmlns="http://www.w3.org/2000/svg" width="1000" height="1000"><rect width="100%" height="100%" fill="rgba(255,255,255,0)"/><g fill="none"><path style="is-custom-font:none;font-file-url:none" d="M892.975 500c0 228.752-186.804 414.347-417.432 414.347-230.63 0-417.436-185.595-417.436-414.347 0-228.752 186.806-414.348 417.436-414.348 230.628 0 417.432 185.596 417.432 414.348z" stroke="#f00098" stroke-width="25.289"/><rect style="is-custom-font:none;font-file-url:none" x="-3.513" y="-7.362" rx="0" ry="0" width="7.025" height="14.725" transform="translate(476.515 498.606) scale(27.5482)"/><rect style="is-custom-font:none;font-file-url:none" x="-3.513" y="-7.362" rx="0" ry="0" width="7.025" height="14.725" transform="translate(476.515 498.606) scale(27.5482)"/></g><path style="is-custom-font:none;font-file-url:none" vector-effect="non-scaling-stroke" d="M608.734 381.891H514.22v-61.988c0-23.28 15.43-28.707 26.296-28.707h66.699v-102.34l-91.857-.359c-101.97 0-125.176 76.33-125.176 125.175v68.22H331.21v105.456h58.971v298.406H514.22V487.348h83.698l10.817-105.457z" fill="#f00098"/></svg>