<svg xmlns="http://www.w3.org/2000/svg" width="1000" height="1000"><rect width="100%" height="100%" fill="rgba(255,255,255,0)"/><g fill="none"><path style="is-custom-font:none;font-file-url:none" d="M892.975 500c0 228.752-186.804 414.347-417.432 414.347-230.63 0-417.436-185.595-417.436-414.347 0-228.752 186.806-414.348 417.436-414.348 230.628 0 417.432 185.596 417.432 414.348z" stroke="#f00098" stroke-width="25.289"/><rect style="is-custom-font:none;font-file-url:none" x="-3.513" y="-7.362" rx="0" ry="0" width="7.025" height="14.725" transform="translate(476.515 498.606) scale(27.5482)"/><rect style="is-custom-font:none;font-file-url:none" x="-3.513" y="-7.362" rx="0" ry="0" width="7.025" height="14.725" transform="translate(476.515 498.606) scale(27.5482)"/></g><g fill="#f00098"><path style="is-custom-font:none;font-file-url:none" d="M486.683 384.87c-69.177 0-126.495 56.33-126.495 126.495s56.33 126.495 126.495 126.495 126.495-57.318 126.495-126.495S555.86 384.87 486.683 384.87zm0 207.53c-44.47 0-81.036-36.564-81.036-81.035s36.565-81.036 81.036-81.036 81.036 36.565 81.036 81.036-36.565 81.036-81.036 81.036z"/><circle style="is-custom-font:none;font-file-url:none" r="2.9" transform="translate(618.12 381.906) scale(9.8824)"/><path style="is-custom-font:none;font-file-url:none" d="M692.237 307.788c-25.694-26.683-62.26-40.518-103.765-40.518H384.894c-85.976 0-143.294 57.318-143.294 143.295v202.589c0 42.494 13.835 79.06 41.506 105.742 26.682 25.694 62.259 38.54 102.777 38.54h201.6c42.495 0 78.072-13.834 103.766-38.54 26.682-25.695 40.518-62.26 40.518-104.754V410.565c0-41.506-13.836-77.083-39.53-102.777zm-3.953 306.354c0 30.636-10.87 55.342-28.659 72.142s-42.494 25.694-72.141 25.694H385.883c-29.648 0-54.354-8.894-72.142-25.694-17.788-17.789-26.682-42.495-26.682-73.13v-202.59c0-29.647 8.894-54.353 26.682-72.14 16.8-16.8 42.494-25.695 72.142-25.695H589.46c29.647 0 54.353 8.894 72.142 26.682 16.8 17.789 26.682 42.495 26.682 71.154v203.577z"/></g></svg>