<svg xmlns="http://www.w3.org/2000/svg" width="1000" height="1000"><rect width="100%" height="100%" fill="rgba(255,255,255,0)"/><g fill="none"><path style="is-custom-font:none;font-file-url:none" d="M892.975 500c0 228.752-186.804 414.347-417.432 414.347-230.63 0-417.436-185.595-417.436-414.347 0-228.752 186.806-414.348 417.436-414.348 230.628 0 417.432 185.596 417.432 414.348z" stroke="#f00098" stroke-width="25.289"/><rect style="is-custom-font:none;font-file-url:none" x="-3.513" y="-7.362" rx="0" ry="0" width="7.025" height="14.725" transform="translate(476.515 498.606) scale(27.5482)"/><rect style="is-custom-font:none;font-file-url:none" x="-3.513" y="-7.362" rx="0" ry="0" width="7.025" height="14.725" transform="translate(476.515 498.606) scale(27.5482)"/></g><path style="is-custom-font:none;font-file-url:none" vector-effect="non-scaling-stroke" d="M760.516 333.186c-19.773 8.79-41.053 14.718-63.381 17.372 22.797-13.648 40.278-35.267 48.521-61.057a220.9 220.9 0 01-70.075 26.794c-20.122-21.443-48.805-34.851-80.545-34.851-60.937 0-110.343 49.406-110.343 110.353 0 8.636.972 17.055 2.86 25.145-91.714-4.607-173.035-48.533-227.464-115.3-9.5 16.291-14.937 35.246-14.937 55.489 0 38.28 19.479 72.062 49.09 91.846a110.037 110.037 0 01-49.985-13.812c-.01.459-.01.928-.01 1.398 0 53.457 38.04 98.048 88.526 108.202a110.95 110.95 0 01-29.076 3.865c-7.119 0-14.03-.688-20.767-1.987 14.052 43.838 54.8 75.753 103.082 76.637-37.767 29.6-85.34 47.244-137.05 47.244a223.15 223.15 0 01-26.324-1.55c48.85 31.325 106.849 49.58 169.16 49.58 202.987 0 313.973-168.144 313.973-313.972 0-4.782-.098-9.553-.306-14.292 21.553-15.526 40.268-34.972 55.051-57.104z" fill="#f00098"/></svg>